<svg xmlns="http://www.w3.org/2000/svg" viewBox="0 0 598 615" fill="none">
  <g clip-path="url(#c)">
    <path d="M13.4598 98.2874C16.6653 73.4979 33.1358 45.3894 53.0543 30.1294C68.8363 18.2649 87.3448 10.5534 106.882 7.70093C117.419 6.18393 127.884 6.33744 138.505 6.27344L177.342 6.16943L312.798 6.34444L416.574 6.55994C431.066 6.38994 445.558 6.31293 460.05 6.32843C469.165 6.35343 478.15 6.11042 487.22 7.27592C516.365 11.0204 544.585 27.8479 562.405 51.0609C570.745 61.9204 580.1 82.2819 581.975 95.7239C585.105 118.169 583.625 145.611 583.61 168.542L583.385 305.947C585.9 308.887 583.97 310.177 583.855 314.027C583.75 317.587 583.855 323.692 583.855 327.297C583.505 342.802 583.74 358.377 583.705 373.887C583.7 376.227 584.155 386.932 583.235 388.397C583.015 400.722 582.79 410.022 579.365 422.067C567.06 465.332 528.885 498.772 482.995 502.037C477.285 503.147 467.44 502.912 461.405 502.917L432.354 502.927L321.16 502.952L262.324 502.992C258.852 502.992 240.037 503.197 237.514 502.642C228.567 509.517 223.272 516.017 215.246 523.767L167.842 570.077C159.402 578.472 150.446 588.417 140.713 595.127C130.958 601.852 120.248 595.182 117.695 584.457C116.893 577.637 116.93 569.982 117.05 563.077C117.394 543.237 116.463 522.962 117.282 503.182C98.0503 502.847 68.7813 491.232 54.2698 479.052C32.1108 460.452 17.1133 435.347 13.4788 406.677C12.6698 401.877 11.2718 402.222 11.2053 396.997C10.9303 375.232 11.0078 353.232 11.0168 331.477L11.0823 206.234L11.0798 140.399C11.0808 130.49 10.9703 120.462 11.2363 110.551C11.3468 106.433 12.7118 102.358 13.4598 98.2874Z" fill="#FE2B01"></path>
    <path d="M246.448 256.939C233.33 251.582 218.815 240.069 206.359 232.756C199.363 228.649 185.416 220.171 200.329 214.61C215.513 208.948 231.163 204.664 246.741 199.957L343.86 171.136L386.915 158.495C392.17 156.905 406.318 150.869 410.281 153.381C411.445 155.959 410.363 158.949 409.359 161.479C399.949 185.18 390.062 208.649 380.843 232.417C375.04 247.376 368.395 262.371 362.248 277.216C356.044 291.67 351.048 306.8 344.242 321.035C342.033 325.81 336.686 327.83 331.883 325.56C320.998 320.415 311.456 311.79 301.492 305.04C299.009 303.355 296.25 300.69 293.896 299.245C283.279 306.11 267.948 319.57 258.411 328.265C261.579 315.77 264.824 303.29 268.147 290.835C268.743 288.615 271.793 276.97 272.563 276.036C280.636 266.25 295.439 254.535 304.621 246.095C330.342 222.452 355.521 199.06 381.891 176.241L381.308 173.521C369.19 179.944 354.17 190.448 341.789 197.702C324.254 207.976 304.847 219.297 287.884 230.332L264.022 246.019C258.276 249.792 252.625 253.853 246.448 256.939Z" fill="#EBEBEB"></path>
  </g>
  <defs><clipPath id="c"><rect width="598" height="615" fill="white"></rect></clipPath></defs>
</svg>